<svg width="21" height="21" viewBox="0 0 21 21" fill="none" xmlns="http://www.w3.org/2000/svg">
<g id="Icon">
<path id="logo" d="M18.0193 7.47687C17.9149 7.55787 16.0717 8.59647 16.0717 10.9059C16.0717 13.5771 18.4171 14.5221 18.4873 14.5455C18.4765 14.6031 18.1147 15.8397 17.2507 17.0997C16.4803 18.2085 15.6757 19.3155 14.4517 19.3155C13.2277 19.3155 12.9127 18.6045 11.4997 18.6045C10.1227 18.6045 9.6331 19.3389 8.5135 19.3389C7.3939 19.3389 6.6127 18.3129 5.7145 17.0529C4.6741 15.5733 3.8335 13.2747 3.8335 11.0931C3.8335 7.59387 6.1087 5.73807 8.3479 5.73807C9.5377 5.73807 10.5295 6.51927 11.2765 6.51927C11.9875 6.51927 13.0963 5.69127 14.4499 5.69127C14.9629 5.69127 16.8061 5.73807 18.0193 7.47687ZM13.8073 4.20987C14.3671 3.54567 14.7631 2.62407 14.7631 1.70247C14.7631 1.57467 14.7523 1.44507 14.7289 1.34067C13.8181 1.37487 12.7345 1.94727 12.0811 2.70507C11.5681 3.28827 11.0893 4.20987 11.0893 5.14407C11.0893 5.28447 11.1127 5.42487 11.1235 5.46987C11.1811 5.48067 11.2747 5.49327 11.3683 5.49327C12.1855 5.49327 13.2133 4.94607 13.8073 4.20987Z" fill="black"/>
</g>
</svg>
