<svg width="21" height="21" viewBox="0 0 21 21" fill="none" xmlns="http://www.w3.org/2000/svg">
<g id="Icon">
<path id="logo" fill-rule="evenodd" clip-rule="evenodd" d="M10.667 1.34067C5.69449 1.34067 1.66699 5.36817 1.66699 10.3407C1.66699 14.3232 4.24324 17.6869 7.82074 18.8794C8.27074 18.9582 8.43949 18.6882 8.43949 18.4519C8.43949 18.2382 8.42824 17.5294 8.42824 16.7757C6.16699 17.1919 5.58199 16.2244 5.40199 15.7182C5.30074 15.4594 4.86199 14.6607 4.47949 14.4469C4.16449 14.2782 3.71449 13.8619 4.46824 13.8507C5.17699 13.8394 5.68324 14.5032 5.85199 14.7732C6.66199 16.1344 7.95574 15.7519 8.47324 15.5157C8.55199 14.9307 8.78824 14.5369 9.04699 14.3119C7.04449 14.0869 4.95199 13.3107 4.95199 9.86817C4.95199 8.88942 5.30074 8.07942 5.87449 7.44942C5.78449 7.22442 5.46949 6.30192 5.96449 5.06442C5.96449 5.06442 6.71824 4.82817 8.43949 5.98692C9.15949 5.78442 9.92449 5.68317 10.6895 5.68317C11.4545 5.68317 12.2195 5.78442 12.9395 5.98692C14.6607 4.81692 15.4145 5.06442 15.4145 5.06442C15.9095 6.30192 15.5945 7.22442 15.5045 7.44942C16.0782 8.07942 16.427 8.87817 16.427 9.86817C16.427 13.3219 14.3232 14.0869 12.3207 14.3119C12.647 14.5932 12.9282 15.1332 12.9282 15.9769C12.9282 17.1807 12.917 18.1482 12.917 18.4519C12.917 18.6882 13.0857 18.9694 13.5357 18.8794C17.0907 17.6869 19.667 14.3119 19.667 10.3407C19.667 5.36817 15.6395 1.34067 10.667 1.34067Z" fill="#1B1F23"/>
</g>
</svg>
