<svg width="18" height="19" viewBox="0 0 18 19" fill="none" xmlns="http://www.w3.org/2000/svg">
<g id="logo">
<path id="Vector" d="M17.6175 9.54334C17.6175 8.95084 17.565 8.38834 17.475 7.84084H9V11.2233H13.8525C13.635 12.3333 12.9975 13.2708 12.0525 13.9083V16.1583H14.9475C16.6425 14.5908 17.6175 12.2808 17.6175 9.54334Z" fill="#4285F4"/>
<path id="Vector_2" d="M9.00027 18.3405C11.4303 18.3405 13.4628 17.5305 14.9478 16.158L12.0528 13.908C11.2428 14.448 10.2153 14.778 9.00027 14.778C6.65277 14.778 4.66527 13.1955 3.95277 11.058H0.967773V13.3755C2.44527 16.3155 5.48277 18.3405 9.00027 18.3405Z" fill="#34A853"/>
<path id="Vector_3" d="M3.9525 11.0579C3.765 10.5179 3.6675 9.94045 3.6675 9.34045C3.6675 8.74045 3.7725 8.16295 3.9525 7.62295V5.30545H0.967499C0.352499 6.52045 0 7.88545 0 9.34045C0 10.7954 0.352499 12.1604 0.967499 13.3754L3.9525 11.0579Z" fill="#FBBC05"/>
<path id="Vector_4" d="M9.00027 3.90317C10.3278 3.90317 11.5128 4.36067 12.4503 5.25317L15.0153 2.68817C13.4628 1.23317 11.4303 0.340668 9.00027 0.340668C5.48277 0.340668 2.44527 2.36567 0.967773 5.30567L3.95277 7.62317C4.66527 5.48567 6.65277 3.90317 9.00027 3.90317Z" fill="#EA4335"/>
</g>
</svg>
