<svg width="57" height="57" viewBox="0 0 57 57" fill="none" xmlns="http://www.w3.org/2000/svg">
<rect x="1" y="0.840668" width="55" height="55" rx="11.5" fill="white"/>
<rect x="1" y="0.840668" width="55" height="55" rx="11.5" stroke="#CFD6DD"/>
<path fill-rule="evenodd" clip-rule="evenodd" d="M29.1377 11.2139C28.7169 11.1273 28.2828 11.1273 27.8619 11.2139C27.3754 11.314 26.9406 11.5575 26.5949 11.7511L26.5007 11.8038L14.7844 18.3128C14.7521 18.3308 14.7187 18.3492 14.6845 18.368C14.3185 18.5696 13.8584 18.823 13.5051 19.2064C13.1996 19.5379 12.9684 19.9309 12.827 20.3589C12.6634 20.854 12.6653 21.3793 12.6668 21.7971C12.6669 21.8361 12.6671 21.8742 12.6671 21.9113V34.7629C12.6671 34.7999 12.6669 34.838 12.6668 34.8771C12.6653 35.2949 12.6634 35.8202 12.827 36.3153C12.9684 36.7433 13.1996 37.1362 13.5051 37.4677C13.8584 37.8512 14.3185 38.1046 14.6845 38.3062C14.7187 38.325 14.7521 38.3434 14.7844 38.3614L26.5007 44.8704L26.5949 44.923C26.9406 45.1167 27.3754 45.3602 27.8619 45.4603C28.2828 45.5468 28.7169 45.5468 29.1377 45.4603C29.6242 45.3602 30.0591 45.1166 30.4048 44.923L30.499 44.8704L42.2152 38.3614C42.2295 38.3534 42.2441 38.3454 42.2587 38.3373C42.2773 38.327 42.2961 38.3167 42.3152 38.3062C42.6811 38.1046 43.1413 37.8512 43.4946 37.4677C43.8001 37.1362 44.0313 36.7433 44.1727 36.3153C44.3363 35.8202 44.3344 35.2949 44.3329 34.8771C44.3327 34.838 44.3326 34.7999 44.3326 34.7629V21.9113C44.3326 21.8742 44.3327 21.8361 44.3329 21.7971C44.3344 21.3793 44.3363 20.854 44.1727 20.3589C44.0313 19.9309 43.8001 19.5379 43.4946 19.2064C43.1413 18.823 42.6811 18.5696 42.3152 18.368L42.3139 18.3673C42.2802 18.3487 42.2472 18.3306 42.2152 18.3128L30.499 11.8038L30.4048 11.7511C30.0591 11.5575 29.6242 11.314 29.1377 11.2139ZM28.0385 14.5718C28.2784 14.4385 28.4009 14.3712 28.4923 14.3271L28.4998 14.3235L28.5074 14.3271C28.5988 14.3712 28.7213 14.4385 28.9612 14.5718L39.4891 20.4207L28.4998 26.5258L17.5105 20.4207L28.0385 14.5718ZM15.8336 23.1115L26.9165 29.2686L26.9166 41.479L16.3223 35.5933C16.069 35.4526 15.9397 35.38 15.849 35.3222L15.8413 35.3173L15.8408 35.3082C15.8343 35.2009 15.8336 35.0526 15.8336 34.7629V23.1115Z" fill="#FF6715"/>
</svg>
